<svg width="400" height="400" viewBox="0 0 400 400" fill="none" xmlns="http://www.w3.org/2000/svg">
<rect width="400" height="400" rx="40" fill="#1e3a8a"/>
<path d="M125 105H150V250C150 265 140 275 125 275C110 275 100 265 100 250V140C100 120 110 105 125 105Z" fill="white"/>
<path d="M170 105H240V130H200V275H170V105Z" fill="white"/>
<path d="M110 300H230V325H140V345H220V370H140V395H110V300Z" fill="white"/>
<path d="M260 300H290V370H320V395H260V300Z" fill="white"/>
<path d="M340 300H370V395H340V300Z" fill="white"/>
</svg>
